<?xml version="1.0" encoding="utf-8"?><!-- Uploaded to: SVG Repo, www.svgrepo.com, Generator: SVG Repo Mixer Tools -->
<svg width="800px" height="800px" viewBox="0 0 24 24" fill="none" xmlns="http://www.w3.org/2000/svg">
<path d="M20.402 9.54887C19.7382 7.26943 18.1719 5.37443 16.1158 4.27646C15.8773 5.14372 15.75 6.05699 15.75 7C15.75 7.7819 15.8375 8.54334 16.0034 9.27507C16.3327 9.25845 16.6651 9.25 17 9.25C18.1718 9.25 19.312 9.35338 20.402 9.54887Z" fill="#000000"/>
<path d="M4.9836 6.77104C5.80706 5.66789 6.88456 4.76547 8.12941 4.15047C8.27115 4.3694 8.41028 4.59435 8.54669 4.8252C9.47909 6.4031 10.2697 8.23615 10.8779 10.2612C9.73889 10.6612 8.68761 11.1704 7.75218 11.7716C7.23545 10.2449 6.53318 8.85712 5.68137 7.66458C5.45932 7.35371 5.2265 7.05544 4.9836 6.77104Z" fill="#000000"/>
<path d="M4.0599 15.6816C3.54014 14.5625 3.25 13.3151 3.25 12C3.25 10.6083 3.57489 9.29255 4.15296 8.12436C4.25753 8.2582 4.36016 8.39558 4.46077 8.53643C5.30459 9.71778 5.99517 11.1311 6.4781 12.708C5.45224 13.5708 4.62159 14.574 4.0599 15.6816Z" fill="#000000"/>
<path d="M7.20441 19.32C6.36494 18.7689 5.62597 18.0773 5.02094 17.2786C5.35595 16.2284 5.99409 15.237 6.89332 14.3544C7.12519 15.5104 7.25 16.733 7.25 18C7.25 18.4458 7.23455 18.8861 7.20441 19.32Z" fill="#000000"/>
<path d="M12.2425 20.7467C12.1619 20.7489 12.0811 20.75 12 20.75C10.8111 20.75 9.67753 20.5129 8.64409 20.0833C8.71395 19.402 8.75 18.7064 8.75 18C8.75 16.3542 8.55434 14.7671 8.19122 13.2828L8.23452 13.2527C9.1178 12.6412 10.1421 12.119 11.2741 11.7123C11.9011 14.2547 12.25 17.054 12.25 20C12.25 20.25 12.2475 20.4989 12.2425 20.7467Z" fill="#000000"/>
<path d="M19.3773 16.7071C18.1226 18.6694 16.1066 20.0978 13.7457 20.5758C13.7486 20.3844 13.75 20.1925 13.75 20C13.75 16.9145 13.3818 13.9656 12.7108 11.274C13.4122 11.096 14.145 10.9601 14.9027 10.8714C15.7371 13.2633 17.3229 15.3028 19.3773 16.7071Z" fill="#000000"/>
<path d="M20.7081 11.1378C20.7358 11.4215 20.75 11.7091 20.75 12C20.75 13.1934 20.5111 14.331 20.0785 15.3675C18.465 14.2236 17.1968 12.6248 16.4608 10.7579C16.6395 10.7527 16.8192 10.75 17 10.75C18.2958 10.75 19.541 10.8865 20.7081 11.1378Z" fill="#000000"/>
<path d="M9.55463 3.59628C10.3307 3.37085 11.1512 3.25 12 3.25C12.9514 3.25 13.8673 3.40184 14.7248 3.6826C14.4158 4.73464 14.25 5.84796 14.25 7C14.25 7.82606 14.3352 8.6322 14.4974 9.41012C13.7473 9.50732 13.0176 9.64751 12.3138 9.8273C11.673 7.69436 10.8356 5.75027 9.83808 4.0621C9.74511 3.90476 9.65062 3.74947 9.55463 3.59628Z" fill="#000000"/>
</svg>