<svg aria-hidden="true" style="position:absolute;width:0;height:0;overflow:hidden" xmlns="http://www.w3.org/2000/svg">
  <defs>
  <symbol id="icon-your-energy-1" viewBox="0 0 302 32">
<path d="M11.383 18.926l-11.383-18.926h6.811l7.634 13.12h0.091l7.634-13.12h6.811l-11.383 18.926v13.074h-6.217v-13.074zM28.96 26.743v-21.486l5.257-5.257h16.457l5.257 5.257v21.486l-5.257 5.257h-16.457l-5.257-5.257zM47.383 26.697l2.331-2.331v-16.731l-2.331-2.331h-9.874l-2.331 2.331v16.731l2.331 2.331h9.874zM60.283 26.514v-26.514h6.217v24.366l2.331 2.331h8.96l2.331-2.331v-24.366h6.217v26.514l-5.486 5.486h-15.086l-5.486-5.486zM116.293 21.394v10.606h-6.217v-9.189l-2.743-3.063h-9.966v12.251h-6.217v-32h20.069l4.891 4.937v9.691l-3.109 3.154 3.291 3.611zM97.367 14.629h11.017l1.6-1.6v-6.217l-1.6-1.6h-11.017v9.417zM132.167 0h23.131v5.257h-16.914v8.091h15.589v5.166h-15.589v8.229h16.914v5.257h-23.131v-32zM158.747 0h5.577l14.263 21.714h0.091v-21.714h5.989v32h-5.577l-14.263-21.669h-0.091v21.669h-5.989v-32zM189.481 0h23.131v5.257h-16.914v8.091h15.589v5.166h-15.589v8.229h16.914v5.257h-23.131v-32zM241.205 21.394v10.606h-6.217v-9.189l-2.743-3.063h-9.966v12.251h-6.217v-32h20.069l4.891 4.937v9.691l-3.109 3.154 3.291 3.611zM222.279 14.629h11.017l1.6-1.6v-6.217l-1.6-1.6h-11.017v9.417zM245.31 26.743v-21.486l5.257-5.257h15.909l5.166 5.166v4.891h-6.217v-2.606l-2.149-2.149h-9.417l-2.331 2.331v16.731l2.331 2.331h9.509l2.24-2.24v-4.983h-6.857v-5.303h12.891v12.571l-5.257 5.257h-15.817l-5.257-5.257zM283.035 18.926l-11.383-18.926h6.811l7.634 13.12h0.091l7.634-13.12h6.811l-11.383 18.926v13.074h-6.217v-13.074z"></path>
</symbol>
<symbol id="icon-circle" viewBox="1 1 30 26"><path d="M17.303 5.512c-0.050 1.444-0.13 3.821-0.183 5.288-0.050 1.467-0.091 2.735-0.091 2.815 0 0.084-0.011 0.137-0.023 0.126-0.027-0.023-0.164-0.343-0.606-1.379-0.133-0.316-0.45-1.059-0.705-1.657-0.259-0.598-0.518-1.208-0.579-1.352-0.065-0.149-0.61-1.425-1.215-2.842-0.602-1.417-1.128-2.651-1.162-2.743s-0.080-0.187-0.099-0.206c-0.019-0.023 0.072 0.263 0.198 0.629 0.13 0.366 0.316 0.907 0.419 1.2 0.099 0.293 0.297 0.857 0.438 1.257 0.491 1.394 0.789 2.248 0.819 2.343 0.015 0.053 0.156 0.446 0.305 0.876 0.152 0.43 0.347 0.994 0.438 1.257 0.263 0.762 0.96 2.754 0.99 2.827 0.053 0.133-0.050 0.065-0.29-0.19-0.225-0.24-2.091-2.156-3.882-3.989-0.43-0.438-1.116-1.143-1.524-1.562-1.242-1.269-2.076-2.103-1.939-1.935 0.072 0.084 0.423 0.499 0.777 0.914 0.358 0.419 0.724 0.85 0.819 0.964 0.095 0.11 0.225 0.263 0.29 0.339s0.389 0.453 0.72 0.842c1.341 1.577 2.754 3.234 3.585 4.206 0.488 0.568 0.88 1.036 0.872 1.044-0.004 0.004-0.4-0.168-0.88-0.385-0.48-0.221-0.956-0.438-1.063-0.484-0.103-0.046-0.301-0.137-0.438-0.198-0.137-0.065-0.343-0.16-0.457-0.21-0.114-0.053-0.312-0.145-0.438-0.202s-0.4-0.183-0.61-0.278c-0.21-0.095-0.705-0.32-1.105-0.503-0.396-0.183-0.903-0.415-1.124-0.514s-1.12-0.51-2-0.914c-1.874-0.857-2-0.914-2-0.895 0 0.008 0.168 0.103 0.37 0.213 0.373 0.198 2.51 1.352 2.907 1.566 0.114 0.065 0.709 0.385 1.314 0.716 0.61 0.328 1.448 0.785 1.867 1.010s0.857 0.461 0.971 0.522c0.114 0.065 0.45 0.244 0.743 0.4 0.293 0.16 0.552 0.301 0.571 0.316 0.023 0.015 0.244 0.133 0.495 0.267 0.251 0.13 0.476 0.255 0.495 0.274 0.027 0.027-0.069 0.030-0.267 0.015-0.168-0.015-1.204-0.076-2.305-0.137-1.101-0.065-2.419-0.141-2.933-0.171-2.998-0.179-5.539-0.324-5.57-0.316-0.019 0.008 0.545 0.084 1.253 0.175 1.33 0.164 5.558 0.701 8.202 1.036 0.827 0.107 1.524 0.198 1.543 0.206 0.023 0.008-0.423 0.16-0.99 0.343-0.564 0.183-1.284 0.415-1.6 0.518-0.312 0.099-0.983 0.316-1.486 0.476s-0.983 0.312-1.067 0.343c-0.156 0.053-1.794 0.579-2.381 0.766-0.179 0.053-0.469 0.149-0.648 0.206-0.179 0.061-0.762 0.248-1.295 0.419s-1.006 0.324-1.048 0.347l-0.076 0.034 0.076-0.019c0.042-0.008 2.084-0.514 4.533-1.124 5.15-1.28 6.137-1.524 6.194-1.524 0.023 0-0.114 0.126-0.301 0.274-0.19 0.152-0.503 0.408-0.697 0.568-0.198 0.16-0.853 0.693-1.463 1.185-1.962 1.585-2.59 2.095-2.667 2.16-0.042 0.034-0.51 0.411-1.044 0.842-0.857 0.69-1.547 1.253-1.775 1.444-0.042 0.034-0.183 0.145-0.312 0.244-0.21 0.16-0.309 0.255-0.27 0.255 0.008 0 0.225-0.149 0.48-0.335 0.259-0.183 0.579-0.408 0.716-0.503s0.377-0.267 0.541-0.385c0.16-0.114 0.43-0.305 0.598-0.419 0.168-0.118 0.743-0.518 1.276-0.895s1.082-0.762 1.219-0.857c0.59-0.415 1.977-1.394 2.629-1.848 0.389-0.274 0.8-0.564 0.914-0.644 0.114-0.084 0.301-0.213 0.415-0.293s0.213-0.137 0.225-0.13c0.008 0.011-0.122 0.255-0.29 0.545s-0.811 1.417-1.436 2.507c-0.625 1.090-1.166 2.030-1.2 2.095-0.038 0.061-0.434 0.758-0.884 1.543s-0.907 1.581-1.017 1.768c-0.107 0.187-0.194 0.343-0.194 0.347 0 0.008-0.065 0.122-0.145 0.251-0.232 0.389-0.362 0.629-0.324 0.587 0.023-0.023 1.398-2.076 3.059-4.571s3.048-4.564 3.086-4.602c0.061-0.069 0.065-0.061 0.034 0.133-0.019 0.11-0.145 0.937-0.282 1.84-0.137 0.899-0.263 1.741-0.286 1.867-0.019 0.126-0.107 0.69-0.19 1.257-0.088 0.564-0.232 1.524-0.324 2.133-0.091 0.606-0.248 1.619-0.343 2.248s-0.183 1.211-0.194 1.295c-0.015 0.084-0.015 0.145-0.008 0.133 0.011-0.011 0.556-2.45 1.215-5.417 0.659-2.971 1.204-5.402 1.215-5.402s0.091 0.339 0.183 0.754c0.091 0.411 0.202 0.895 0.24 1.074 0.042 0.179 0.51 2.278 1.044 4.667 0.53 2.389 0.968 4.32 0.968 4.293 0.004-0.030-0.030-0.27-0.072-0.533-0.065-0.396-0.808-5.276-1.2-7.893-0.053-0.347-0.114-0.739-0.137-0.876-0.145-0.914-0.244-1.638-0.229-1.638 0.015 0.004 1.41 2.084 3.105 4.629 1.699 2.545 3.093 4.629 3.101 4.629s-0.027-0.072-0.080-0.16c-0.050-0.091-0.587-1.021-1.189-2.069s-1.17-2.034-1.257-2.19c-0.088-0.156-0.29-0.51-0.446-0.781-0.156-0.274-0.796-1.387-1.421-2.476s-1.143-1.996-1.154-2.015c-0.027-0.046 0.023-0.015 0.469 0.301 0.21 0.149 0.503 0.354 0.648 0.457 0.149 0.103 0.61 0.427 1.029 0.724 0.762 0.537 1.539 1.086 1.829 1.28 0.175 0.122 1.589 1.12 1.962 1.383 0.137 0.099 0.678 0.48 1.2 0.846 0.526 0.366 1.021 0.716 1.105 0.777 0.385 0.282 0.827 0.564 0.686 0.442-0.152-0.13-2.613-2.13-3.924-3.185-0.377-0.301-1.15-0.93-1.718-1.39-0.571-0.461-1.425-1.154-1.901-1.535-0.472-0.385-0.853-0.709-0.846-0.716 0.015-0.019 0.933 0.206 7.55 1.851 1.76 0.434 3.204 0.789 3.211 0.785 0.004-0.008-0.27-0.103-0.61-0.21-0.343-0.11-1.048-0.339-1.573-0.507-0.522-0.168-1.166-0.373-1.429-0.457s-0.792-0.255-1.181-0.381c-0.667-0.213-1.505-0.484-2.4-0.773-0.221-0.069-0.69-0.221-1.048-0.335-0.354-0.118-1.032-0.335-1.505-0.488-0.472-0.149-0.838-0.278-0.819-0.286 0.023-0.008 0.853-0.118 1.848-0.244s2.617-0.331 3.6-0.457c0.987-0.126 2.644-0.335 3.688-0.465 1.040-0.133 1.878-0.244 1.859-0.251-0.030-0.011-3.768 0.202-5.242 0.297-0.335 0.023-1.364 0.084-2.286 0.133-0.922 0.053-2.095 0.122-2.606 0.152-0.51 0.034-0.937 0.050-0.945 0.042s0.152-0.103 0.358-0.213c0.206-0.11 0.682-0.37 1.059-0.571 0.93-0.507 4.754-2.571 5.181-2.8 0.19-0.103 0.411-0.221 0.495-0.267 0.282-0.156 1.901-1.032 2.248-1.219 0.438-0.232 0.503-0.29 0.133-0.122-0.156 0.072-0.971 0.442-1.81 0.823-0.838 0.385-1.669 0.762-1.84 0.846-0.175 0.080-0.324 0.149-0.331 0.149s-0.175 0.076-0.37 0.168c-0.194 0.091-0.629 0.29-0.964 0.442s-0.815 0.37-1.067 0.484c-0.251 0.118-0.85 0.392-1.333 0.61-0.48 0.221-1.006 0.461-1.162 0.533-0.377 0.179-0.952 0.43-0.975 0.43-0.008 0 0.027-0.046 0.076-0.107 0.050-0.057 0.316-0.37 0.59-0.693 0.278-0.324 0.621-0.728 0.766-0.895 0.141-0.168 0.575-0.674 0.956-1.128 1.829-2.145 3.23-3.794 4.164-4.884 0.339-0.396 0.617-0.735 0.625-0.75 0.008-0.019-0.225 0.21-0.514 0.507s-0.861 0.884-1.272 1.303c-0.408 0.419-1.086 1.112-1.505 1.543-0.861 0.884-2.004 2.053-3.124 3.2-0.419 0.43-0.888 0.914-1.044 1.074-0.152 0.164-0.286 0.29-0.293 0.282s0.099-0.335 0.236-0.731c0.141-0.396 0.4-1.139 0.579-1.653 0.362-1.048 0.792-2.274 0.983-2.819 0.126-0.347 0.179-0.507 0.59-1.695 0.103-0.293 0.29-0.834 0.419-1.2 0.499-1.413 0.8-2.297 0.789-2.309-0.008-0.011-0.815 1.867-1.95 4.537-0.461 1.082-0.621 1.463-0.8 1.867-0.030 0.061-0.198 0.465-0.381 0.895-0.309 0.731-0.606 1.432-0.724 1.695-0.027 0.061-0.13 0.301-0.225 0.533-0.099 0.229-0.198 0.461-0.225 0.514l-0.042 0.095-0.011-0.095c-0.008-0.053-0.053-1.356-0.107-2.895-0.229-6.861-0.263-7.886-0.286-7.886-0.011 0-0.061 1.177-0.107 2.617zM17.737 14.187c0.636 0.114 1.162 0.59 1.345 1.219 0.076 0.255 0.084 0.347 0.065 0.625-0.038 0.45-0.255 0.891-0.587 1.177-0.872 0.762-2.187 0.495-2.705-0.541-0.133-0.267-0.156-0.354-0.179-0.648-0.019-0.301-0.011-0.381 0.069-0.636 0.122-0.385 0.385-0.743 0.67-0.918 0.328-0.202 0.373-0.221 0.644-0.274 0.335-0.065 0.32-0.065 0.678-0.004z"></path> </symbol>
   <symbol id="30" viewBox="0 0 32 32">

      <path stroke-width="3.368" d="m15.217 13.979.783-.146.783.146.677.419.48.636.218.766-.073.793-.355.713-.589.537-.743.288h-.797l-.743-.288-.589-.537-.355-.713-.073-.793.218-.766.48-.636.677-.419z"/>
    </symbol>
    <symbol id="align-justify" viewBox="0 0 32 32">
      <path stroke-width="2" stroke-linecap="round" stroke-linejoin="round" d="M28 13.333H4M28 8H4M28 18.667H4M28 24H4"/>
    </symbol>
    <symbol id="arrow" viewBox="0 0 32 32">
      <path stroke-width="2.6" stroke-linecap="round" stroke-linejoin="round" d="m15 28 13-13m0 0L15 2m13 13H2"/>
    </symbol>
    <symbol id="facebook" viewBox="0 0 32 32">
      <path d="M19.52 4.64h.96v3.6h-1.2c-.48 0-.96 0-1.2.24s-.24.48-.24 1.04v1.28h2.64v3.04h-2.64v13.2h-4.08V13.76H11.6v-3.04h2.16V9.68c0-1.76.24-3.04.72-3.6.72-1.04 2.16-1.52 4.32-1.52.24.08.48.08.72.08z"/>
    </symbol>
    <symbol id="fluent_food" viewBox="0 0 32 32">
      <path d="M7.36 9.143H5.44c-.532 0-.96.459-.96 1.029v4.457h-.96c-.176 0-.32.154-.32.343v2.057c0 .188.144.343.32.343h.96v4.457c0 .57.428 1.028.96 1.028h1.92c.532 0 .96-.459.96-1.028V10.172c0-.57-.428-1.029-.96-1.029zm21.12 5.486h-.96v-4.457c0-.57-.428-1.029-.96-1.029h-1.92c-.532 0-.96.459-.96 1.029v11.657c0 .57.428 1.028.96 1.028h1.92c.532 0 .96-.459.96-1.028v-4.457h.96c.176 0 .32-.154.32-.343v-2.057c0-.189-.144-.343-.32-.343zM21.44 6.4h-1.92c-.532 0-.96.459-.96 1.029v7.2h-5.12v-7.2c0-.57-.428-1.029-.96-1.029h-1.92c-.532 0-.96.459-.96 1.029v17.143c0 .57.428 1.029.96 1.029h1.92c.532 0 .96-.459.96-1.029v-7.2h5.12v7.2c0 .57.428 1.029.96 1.029h1.92c.532 0 .96-.459.96-1.029V7.429c0-.57-.428-1.029-.96-1.029z"/>
    </symbol>
    <symbol id="Group" viewBox="0 0 29 32">
      <path d="M28.367 9.451a1.232 1.232 0 0 0-1.706-.149l-3.359 2.757-1.545-3.739a1.157 1.157 0 0 0-.234-.362 3.255 3.255 0 0 0-1.619-1.617 3.379 3.379 0 0 0-1.005-.262c-.075-.038-.142-.088-.227-.114l-5.911-1.61a1.242 1.242 0 0 0-.938.125 1.17 1.17 0 0 0-.736.672l-2.226 5.592a1.18 1.18 0 0 0 .692 1.534 1.224 1.224 0 0 0 1.568-.678l1.88-4.722 2.692.731c-.066.104-.137.201-.19.312l-3.451 7.309c-.05.107-.076.217-.112.328l-4.194 6.871-7.019 2.294a1.73 1.73 0 0 0-.376 2.45 1.82 1.82 0 0 0 2.506.369l7.182-2.417c.22-.156.38-.36.5-.581.09-.093.193-.168.262-.284l2.501-4.096 4.439 3.696-4.749 5.23a1.722 1.722 0 0 0 .152 2.469c.74.643 1.873.575 2.531-.149l5.927-6.524c.184-.201.294-.433.369-.676.044-.132.044-.268.055-.405 0-.069.027-.132.021-.196a1.705 1.705 0 0 0-.615-1.274l-4.084-3.403c.294-.274.544-.6.725-.983l2.646-5.599.848 2.206c.036.196.103.388.245.549.128.149.291.248.465.317.018.009.039.01.06.016.11.038.222.075.337.08.136.012.275-.005.415-.043l.005-.002c.037-.009.075-.002.112-.017.197-.073.348-.196.477-.34l4.82-3.998c.512-.421.296-1.166-.135-1.667zM22.271 6.602c1.866 0 3.378-1.478 3.378-3.301S24.137 0 22.271 0s-3.378 1.478-3.378 3.301 1.513 3.301 3.378 3.301z"/>
    </symbol>
    <symbol id="heart" viewBox="0 0 32 32">
      <path stroke-width="2.4" stroke-linecap="round" stroke-linejoin="round" d="M27.787 6.147a7.345 7.345 0 0 0-5.187-2.15 7.33 7.33 0 0 0-5.187 2.15L16 7.56l-1.413-1.413a7.333 7.333 0 0 0-10.374 0 7.333 7.333 0 0 0 0 10.374L16 28.308l11.787-11.787a7.345 7.345 0 0 0 2.15-5.187 7.33 7.33 0 0 0-2.15-5.187z"/>
    </symbol>
    <symbol id="instagram" viewBox="0 0 32 32">
      <path d="M28.717 10.756a9.264 9.264 0 0 0-.596-3.145 6.547 6.547 0 0 0-3.743-3.737 9.42 9.42 0 0 0-3.108-.596c-1.368-.061-1.801-.078-5.273-.078s-3.917 0-5.274.078a9.418 9.418 0 0 0-3.106.596 6.541 6.541 0 0 0-3.743 3.737 9.288 9.288 0 0 0-.596 3.101c-.061 1.367-.08 1.8-.08 5.265s0 3.909.08 5.265a9.335 9.335 0 0 0 .596 3.104 6.548 6.548 0 0 0 3.744 3.735 9.37 9.37 0 0 0 3.106.639c1.369.061 1.803.08 5.274.08s3.916 0 5.274-.08a9.357 9.357 0 0 0 3.108-.595 6.555 6.555 0 0 0 3.743-3.737 9.35 9.35 0 0 0 .596-3.104c.061-1.365.08-1.798.08-5.265-.003-3.466-.003-3.906-.082-5.264zM15.99 22.531c-3.631 0-6.572-2.936-6.572-6.561s2.941-6.561 6.572-6.561c3.628 0 6.572 2.936 6.572 6.561s-2.944 6.561-6.572 6.561zm6.833-11.835a1.53 1.53 0 1 1 0-3.06 1.53 1.53 0 1 1 0 3.06z"/>
      <path d="M15.992 19.976a4.004 4.004 0 1 0 0-8.009 4.004 4.004 0 0 0 0 8.009z"/>
    </symbol>
    <symbol id="inverted-commas" viewBox="0 0 32 32">
      <path d="M8.2 17.469c1.546-.612 2.785-.452 3.719.481s1.21 2.421.831 4.462c-.292 1.517-.933 2.683-1.925 3.5-.963.788-2.085 1.181-3.369 1.181-1.75 0-2.96-.671-3.631-2.012-.671-1.371-.802-3.208-.394-5.512.233-1.254.613-2.523 1.137-3.806s1.225-2.596 2.1-3.937c.875-1.342 2.012-2.508 3.412-3.5s2.946-1.633 4.638-1.925l-.438 4.638c-1.429.292-2.698 1.035-3.806 2.231-1.108 1.167-1.867 2.567-2.275 4.2zm13.169 0c1.546-.612 2.785-.452 3.719.481s1.21 2.421.831 4.462c-.292 1.517-.933 2.683-1.925 3.5-.962.788-2.085 1.181-3.369 1.181-1.75 0-2.96-.671-3.631-2.012-.671-1.371-.802-3.208-.394-5.512.233-1.254.612-2.523 1.138-3.806s1.225-2.596 2.1-3.937c.875-1.342 2.012-2.508 3.412-3.5s2.946-1.633 4.637-1.925l-.437 4.638c-1.429.292-2.698 1.035-3.806 2.231-1.108 1.167-1.867 2.567-2.275 4.2z"/>
    </symbol>
    <symbol id="Rectangle" viewBox="0 0 520 32">
      <path d="M16 0h488c8.837 0 16 7.163 16 16s-7.163 16-16 16H16C7.163 32 0 24.837 0 16S7.163 0 16 0z"/>
    </symbol>
    <symbol id="search" viewBox="0 0 32 32">
      <path stroke-width="2.667" stroke-linecap="round" stroke-linejoin="round" d="M14.667 25.333c5.891 0 10.667-4.776 10.667-10.667S20.558 3.999 14.667 3.999 4 8.775 4 14.666s4.776 10.667 10.667 10.667zM28 28l-5.8-5.8"/>
    </symbol>
    <symbol id="trash" viewBox="0 0 32 32">
      <path stroke-width="2.6" stroke-linecap="round" stroke-linejoin="round" d="M21.333 8V6.933c0-1.493 0-2.24-.291-2.811a2.666 2.666 0 0 0-1.165-1.165c-.57-.291-1.317-.291-2.811-.291h-2.133c-1.493 0-2.24 0-2.811.291-.502.256-.91.664-1.165 1.165-.291.57-.291 1.317-.291 2.811V8m2.667 7.333V22m5.334-6.667V22M4 8h24m-2.667 0v14.933c0 2.24 0 3.36-.436 4.216a3.996 3.996 0 0 1-1.748 1.748c-.856.436-1.976.436-4.216.436h-5.867c-2.24 0-3.36 0-4.216-.436a3.991 3.991 0 0 1-1.748-1.748c-.436-.856-.436-1.976-.436-4.216V8"/>
    </symbol>
    <symbol id="x" viewBox="0 0 32 32">
      <path stroke-width="2" stroke-linecap="round" stroke-linejoin="round" d="M24 8 8 24M8 8l16 16"/>
    </symbol>
    <symbol id="youtube" viewBox="0 0 32 32">
      <path d="M24.24 6c-1.36-.08-4.16-.16-8.4-.16h-.56c-4.08 0-6.8.08-8.16.24-1.84.16-3.12.64-3.84 1.28-.64.56-1.12 1.6-1.28 2.96-.08.88-.16 2.72-.16 5.52v.4c0 2.64.08 4.48.24 5.36.24 1.28.64 2.24 1.44 2.8.8.64 2.16 1.04 4.08 1.2 1.36.08 4.16.16 8.4.16h.56c4.08 0 6.8-.08 8.16-.24 1.84-.16 3.12-.64 3.84-1.28.64-.56 1.12-1.6 1.28-2.96.08-.88.16-2.72.16-5.52v-.4c0-2.64-.08-4.48-.24-5.36-.24-1.28-.64-2.24-1.44-2.8-.8-.64-2.16-1.04-4.08-1.2zm-3.12 9.84-8.8 5.28V10.56l8.8 5.28z"/>
    </symbol>
    <symbol id="profile" viewBox="0 0 32 32">
      <path d="M27 0H3C1.35 0 0 1.35 0 3v26c0 1.65 1.35 3 3 3h24c1.65 0 3-1.35 3-3V3c0-1.65-1.35-3-3-3zm-1 28H4V4h22v24zM8 18h14v2H8zm0 4h14v2H8zm2-13a3 3 0 1 1 6 0 3 3 0 0 1-6 0zm5 3h-4c-1.65 0-3 .9-3 2v2h10v-2c0-1.1-1.35-2-3-2z"/>
    </symbol>
    <symbol id="icon-Star-1" viewBox="0 0 34 32">
<path fill="#f4f4f4" style="fill: var(--color1, #f4f4f4)" opacity="0.2" d="M15.24 1.561c0.504-1.552 2.699-1.552 3.204 0l2.558 7.872c0.225 0.694 0.872 1.164 1.602 1.164h8.277c1.632 0 2.31 2.088 0.99 3.047l-6.696 4.865c-0.59 0.429-0.837 1.189-0.612 1.883l2.558 7.872c0.504 1.552-1.272 2.842-2.592 1.883l-6.696-4.865c-0.59-0.429-1.39-0.429-1.98 0l-6.696 4.865c-1.32 0.959-3.096-0.331-2.592-1.883l2.558-7.872c0.225-0.694-0.022-1.454-0.612-1.883l-6.696-4.865c-1.32-0.959-0.642-3.047 0.99-3.047h8.277c0.73 0 1.376-0.47 1.602-1.164l2.558-7.872z"></path>
</symbol>
<symbol id="icon-Star-2" viewBox="0 0 34 32">
<path fill="#eea10c" style="fill: var(--color1, #eea10c)" d="M14.89 2.282c0.737-2.268 3.945-2.268 4.682 0l2.080 6.402c0.33 1.014 1.275 1.701 2.341 1.701h6.731c2.384 0 3.376 3.051 1.447 4.453l-5.446 3.957c-0.863 0.627-1.224 1.738-0.894 2.752l2.080 6.402c0.737 2.268-1.859 4.154-3.788 2.752l-5.446-3.957c-0.863-0.627-2.031-0.627-2.894 0l-5.446 3.957c-1.929 1.402-4.525-0.484-3.788-2.752l2.080-6.402c0.33-1.014-0.031-2.125-0.894-2.752l-5.446-3.957c-1.929-1.402-0.938-4.453 1.447-4.453h6.731c1.066 0 2.012-0.687 2.341-1.701l2.080-6.402z"></path>
</symbol>
<symbol id="icon-x" viewBox="0 0 32 32">
<path fill="none" stroke="#f4f4f4" style="stroke: var(--color1, #f4f4f4)" stroke-linejoin="round" stroke-linecap="round" stroke-miterlimit="4" stroke-width="2" d="M22.667 9.333l-13.333 13.333M9.333 9.333l13.333 13.333"></path>
</symbol><symbol id="icon-heart-1" viewBox="0 0 32 32">
<path stroke-linejoin="round" stroke-linecap="round" stroke-miterlimit="4" stroke-width="2.4" d="M27.787 6.147c-0.681-0.681-1.49-1.222-2.38-1.591s-1.844-0.559-2.807-0.559c-0.963 0-1.917 0.19-2.807 0.559s-1.699 0.909-2.38 1.591l-1.413 1.413-1.413-1.413c-1.376-1.376-3.241-2.148-5.187-2.148s-3.811 0.773-5.187 2.148c-1.376 1.376-2.148 3.241-2.148 5.187s0.773 3.811 2.148 5.187l11.787 11.787 11.787-11.787c0.681-0.681 1.222-1.49 1.591-2.38s0.559-1.844 0.559-2.807c0-0.963-0.19-1.917-0.559-2.807s-0.909-1.699-1.591-2.38z"></path>
</symbol>

  </defs>
</svg>
